HIERARCHY
ROOT hip
{
  OFFSET 0 0 0
  CHANNELS 6 Xposition Yposition Zposition Zrotation Yrotation Xrotation
  JOINT abdomen
  {
    OFFSET 0 20.6881 -0.73152
    CHANNELS 3 Zrotation Xrotation Yrotation
    JOINT chest
    {
      OFFSET 0 11.7043 -0.48768
      CHANNELS 3 Zrotation Xrotation Yrotation
      JOINT neck
      {
        OFFSET 0 22.1894 -2.19456
        CHANNELS 3 Zrotation Xrotation Yrotation
        JOINT head
        {
          OFFSET -0.24384 7.07133 1.2192
          CHANNELS 3 Zrotation Xrotation Yrotation
          JOINT leftEye
          {
            OFFSET 4.14528 8.04674 8.04672
            CHANNELS 3 Zrotation Xrotation Yrotation
            End Site
            {
              OFFSET 1 0 0
            }
          }
          JOINT rightEye
          {
            OFFSET -3.6576 8.04674 8.04672
            CHANNELS 3 Zrotation Xrotation Yrotation
            End Site
            {
              OFFSET 1 0 0
            }
          }
        }
      }
      JOINT rCollar
      {
        OFFSET -2.68224 19.2634 -4.8768
        CHANNELS 3 Zrotation Xrotation Yrotation
        JOINT rShldr
        {
          OFFSET -8.77824 -1.95073 1.46304
          CHANNELS 3 Zrotation Xrotation Yrotation
          JOINT rForeArm
          {
            OFFSET -28.1742 -1.7115 0.48768
            CHANNELS 3 Zrotation Xrotation Yrotation
            JOINT rHand
            {
              OFFSET -22.5879 0.773209 7.07136
              CHANNELS 3 Zrotation Xrotation Yrotation
              JOINT rThumb1
              {
                OFFSET -1.2192 -0.487915 3.41376
                CHANNELS 3 Zrotation Xrotation Yrotation
                JOINT rThumb2
                {
                  OFFSET -3.37035 -0.52449 3.41376
                  CHANNELS 3 Zrotation Xrotation Yrotation
                  End Site
                  {
                    OFFSET -1.78271 -1.18214 1.43049
                  }
                }
              }
              JOINT rIndex1
              {
                OFFSET -7.75947 0.938293 5.60832
                CHANNELS 3 Zrotation Xrotation Yrotation
                JOINT rIndex2
                {
                  OFFSET -2.54057 -0.884171 1.56538
                  CHANNELS 3 Zrotation Xrotation Yrotation
                  End Site
                  {
                    OFFSET -1.62519 -0.234802 1.16502
                  }
                }
              }
              JOINT rMid1
              {
                OFFSET -8.24714 1.18213 3.41376
                CHANNELS 3 Zrotation Xrotation Yrotation
                JOINT rMid2
                {
                  OFFSET -3.10165 -0.590103 1.0647
                  CHANNELS 3 Zrotation Xrotation Yrotation
                  End Site
                  {
                    OFFSET -2.48547 -0.328903 0.83742
                  }
                }
              }
              JOINT rRing1
              {
                OFFSET -8.82822 0.546677 1.51678
                CHANNELS 3 Zrotation Xrotation Yrotation
                JOINT rRing2
                {
                  OFFSET -2.60934 -0.819778 -0.0198488
                  CHANNELS 3 Zrotation Xrotation Yrotation
                  End Site
                  {
                    OFFSET -2.33842 -0.294052 0.168128
                  }
                }
              }
              JOINT rPinky1
              {
                OFFSET -8.27202 -0.0477905 -0.4584
                CHANNELS 3 Zrotation Xrotation Yrotation
                JOINT rPinky2
                {
                  OFFSET -1.82734 -0.647385 -0.700984
                  CHANNELS 3 Zrotation Xrotation Yrotation
                  End Site
                  {
                    OFFSET -1.69225 -0.51767 -0.607171
                  }
                }
              }
            }
          }
        }
      }
      JOINT lCollar
      {
        OFFSET 2.68224 19.2634 -4.8768
        CHANNELS 3 Zrotation Xrotation Yrotation
        JOINT lShldr
        {
          OFFSET 8.77824 -1.95073 1.46304
          CHANNELS 3 Zrotation Xrotation Yrotation
          JOINT lForeArm
          {
            OFFSET 28.1742 -1.7115 0.48768
            CHANNELS 3 Zrotation Xrotation Yrotation
            JOINT lHand
            {
              OFFSET 22.5879 0.773209 7.07136
              CHANNELS 3 Zrotation Xrotation Yrotation
              JOINT lThumb1
              {
                OFFSET 1.2192 -0.487915 3.41376
                CHANNELS 3 Zrotation Xrotation Yrotation
                JOINT lThumb2
                {
                  OFFSET 3.37035 -0.52449 3.41376
                  CHANNELS 3 Zrotation Xrotation Yrotation
                  End Site
                  {
                    OFFSET 1.78271 -1.18214 1.43049
                  }
                }
              }
              JOINT lIndex1
              {
                OFFSET 7.75947 0.938293 5.60832
                CHANNELS 3 Zrotation Xrotation Yrotation
                JOINT lIndex2
                {
                  OFFSET 2.54057 -0.884171 1.56538
                  CHANNELS 3 Zrotation Xrotation Yrotation
                  End Site
                  {
                    OFFSET 1.62519 -0.234802 1.16502
                  }
                }
              }
              JOINT lMid1
              {
                OFFSET 8.24714 1.18213 3.41376
                CHANNELS 3 Zrotation Xrotation Yrotation
                JOINT lMid2
                {
                  OFFSET 3.10165 -0.590103 1.0647
                  CHANNELS 3 Zrotation Xrotation Yrotation
                  End Site
                  {
                    OFFSET 2.48547 -0.328903 0.83742
                  }
                }
              }
              JOINT lRing1
              {
                OFFSET 8.82822 0.546677 1.51678
                CHANNELS 3 Zrotation Xrotation Yrotation
                JOINT lRing2
                {
                  OFFSET 2.60934 -0.819778 -0.0198488
                  CHANNELS 3 Zrotation Xrotation Yrotation
                  End Site
                  {
                    OFFSET 2.33842 -0.294052 0.168128
                  }
                }
              }
              JOINT lPinky1
              {
                OFFSET 8.27202 -0.0477905 -0.4584
                CHANNELS 3 Zrotation Xrotation Yrotation
                JOINT lPinky2
                {
                  OFFSET 1.82734 -0.647385 -0.700984
                  CHANNELS 3 Zrotation Xrotation Yrotation
                  End Site
                  {
                    OFFSET 1.69225 -0.51767 -0.607171
                  }
                }
              }
            }
          }
        }
      }
    }
  }
  JOINT rButtock
  {
    OFFSET -8.77824 4.35084 1.2192
    CHANNELS 3 Zrotation Xrotation Yrotation
    JOINT rThigh
    {
      OFFSET 0 -1.70687 -2.19456
      CHANNELS 3 Zrotation Xrotation Yrotation
      JOINT rShin
      {
        OFFSET 0 -36.8199 0.73152
        CHANNELS 3 Zrotation Xrotation Yrotation
        JOINT rFoot
        {
          OFFSET 0.73152 -45.1104 -5.12064
          CHANNELS 3 Zrotation Xrotation Yrotation
          End Site
          {
            OFFSET -1.1221 -3.69964 12.103
          }
        }
      }
    }
  }
  JOINT lButtock
  {
    OFFSET 8.77824 4.35084 1.2192
    CHANNELS 3 Zrotation Xrotation Yrotation
    JOINT lThigh
    {
      OFFSET 0 -1.70687 -2.19456
      CHANNELS 3 Zrotation Xrotation Yrotation
      JOINT lShin
      {
        OFFSET 0 -36.8199 0.73152
        CHANNELS 3 Zrotation Xrotation Yrotation
        JOINT lFoot
        {
          OFFSET -0.73152 -45.1104 -5.12064
          CHANNELS 3 Zrotation Xrotation Yrotation
          End Site
          {
            OFFSET 1.1221 -3.69964 12.103
          }
        }
      }
    }
  }
}
MOTION
Frames:	4
Frame Time:	0.03333
-30.1474 56.1213 95.9634 2.7391999999999994 18.331100000000003 4.9376 -10.310299999999998 8.78791 1.2027499999999998 4.87507 -8.7689 0.555947 -7.557949999999999 15.715899999999998 -7.85406 11.0767 -23.941299999999995 -13.0426 -0.0 0.0 0.0 -0.0 0.0 0.0 -1.38691e-13 2.90237e-14 9.44774e-13 45.0036 37.7676 9.98009 -28.198899999999995 -31.971600000000002 70.4084 -0.0029311499999999996 1.54571 0.217288 1.92472e-09 2.1951899999999998e-08 -6.79762e-09 3.31269e-09 3.78933e-08 -1.1748600000000001e-08 1.92473e-09 2.1951899999999998e-08 -6.797630000000001e-09 7.730909999999999 5.47488 0.417314 1.92472e-09 2.1951899999999998e-08 -6.79762e-09 2.90554 0.965183 0.102902 1.92472e-09 2.1951899999999998e-08 -6.79762e-09 10.278600000000003 0.731801 0.0259123 1.92471e-09 2.1951899999999998e-08 -6.7976100000000005e-09 2.22167 -0.733487 -0.20892000000000002 -1.38772e-13 2.9021200000000004e-14 9.44525e-13 -59.54699999999999 57.3831 -15.4805 27.9794 -40.5213 -84.8611 1.9447 -36.3049 5.9267 -1.18936e-10 -7.4188e-09 -1.42079e-09 -1.69234e-10 -1.33578e-08 -2.44695e-09 -1.18943e-10 -7.418769999999998e-09 -1.42077e-09 -7.730909999999999 5.47488 -0.417314 -1.18933e-10 -7.4188e-09 -1.42078e-09 -2.90554 0.965183 -0.102902 -1.1894099999999996e-10 -7.418769999999998e-09 -1.42077e-09 -10.278600000000003 0.731801 -0.0259123 -1.1892699999999997e-10 -7.418789999999999e-09 -1.42078e-09 -2.22167 -0.733487 0.20892000000000002 -2.03217e-16 0.0 -3.88251e-19 -44.7894 -59.0182 -43.1317 -2.56103 72.41120000000001 2.75306 4.12864 -5.50462 20.659099999999995 2.03217e-16 0.0 3.88251e-19 13.8134 5.52284 5.53139 -0.00897716 41.93729999999999 -2.8306899999999997 15.2752 -22.515500000000003 37.309
-30.130200000000002 56.041700000000006 96.0447 2.71 18.5142 4.8341 -10.2963 8.82764 1.22883 4.87169 -8.744589999999999 0.560765 -7.55387 15.808 -7.89255 11.1688 -24.054 -13.1002 -0.0 0.0 0.0 -0.0 0.0 0.0 -3.7579e-14 -6.82318e-14 6.10561e-13 45.29840000000001 37.6213 9.64219 -28.1963 -31.950899999999997 70.37509999999999 -0.0028943 1.53513 0.2158 1.7215600000000004e-09 1.82994e-08 -5.354140000000001e-09 2.96599e-09 3.15986e-08 -9.25462e-09 1.7215699999999999e-09 1.82994e-08 -5.354140000000001e-09 7.730909999999999 5.47488 0.417314 1.7215600000000004e-09 1.82994e-08 -5.354140000000001e-09 2.90554 0.965183 0.102902 1.7215600000000004e-09 1.82994e-08 -5.354140000000001e-09 10.278600000000003 0.731801 0.0259123 1.7215600000000004e-09 1.82994e-08 -5.354130000000001e-09 2.22167 -0.733487 -0.20892000000000002 -3.75112e-14 -6.823309999999999e-14 6.10371e-13 -59.5677 57.4459 -15.3832 27.9831 -40.5026 -84.8272 1.94596 -36.3147 5.92883 5.87741e-10 -1.13487e-08 -2.1416699999999997e-10 1.01924e-09 -1.9522200000000002e-08 -3.48972e-10 5.87733e-10 -1.13487e-08 -2.1415400000000001e-10 -7.730909999999999 5.47488 -0.417314 5.87744e-10 -1.13487e-08 -2.14164e-10 -2.90554 0.965183 -0.102902 5.87737e-10 -1.13487e-08 -2.14162e-10 -10.278600000000003 0.731801 -0.0259123 5.8775e-10 -1.13487e-08 -2.1417099999999998e-10 -2.22167 -0.733487 0.20892000000000002 -2.03217e-16 0.0 -3.88251e-19 -44.9629 -58.891600000000004 -43.3832 -2.6044 72.6105 2.78793 4.17711 -5.58092 20.7298 2.03217e-16 0.0 3.88251e-19 14.0516 5.52571 5.61538 -0.00708118 42.09360000000001 -2.83992 15.2732 -22.6681 37.14130000000001
-30.128699999999995 55.9848 96.0888 2.6415 18.6114 4.7743 -10.3139 8.88376 1.30208 4.87466 -8.72885 0.578309 -7.5661000000000005 15.890599999999997 -7.93913 11.274899999999999 -24.1531 -13.1704 -0.0 0.0 0.0 -0.0 0.0 0.0 8.12092e-14 -1.72545e-13 1.2091099999999998e-13 45.5495 37.4772 9.32253 -28.1939 -31.931100000000004 70.3427 -0.00289367 1.5358 0.215895 1.1129e-09 1.04013e-08 -2.64211e-09 1.92071e-09 1.79732e-08 -4.5676999999999994e-09 1.11291e-09 1.04014e-08 -2.64211e-09 7.730909999999999 5.47488 0.417314 1.1129e-09 1.04014e-08 -2.64211e-09 2.90554 0.965183 0.102902 1.1129e-09 1.04014e-08 -2.64211e-09 10.278600000000003 0.731801 0.0259123 1.1129e-09 1.04014e-08 -2.6421000000000002e-09 2.22167 -0.733487 -0.20892000000000002 8.140190000000001e-14 -1.72543e-13 1.20762e-13 -59.44630000000001 57.4966 -15.4195 27.990100000000005 -40.4664 -84.7615 1.9475299999999998 -36.326899999999995 5.93148 1.38558e-09 -1.47568e-08 1.29289e-09 2.3577199999999996e-09 -2.46605e-08 2.26868e-09 1.3855699999999998e-09 -1.47568e-08 1.2929e-09 -7.730909999999999 5.47488 -0.417314 1.38558e-09 -1.47568e-08 1.29289e-09 -2.90554 0.965183 -0.102902 1.38558e-09 -1.47568e-08 1.29289e-09 -10.278600000000003 0.731801 -0.0259123 1.38559e-09 -1.47568e-08 1.29288e-09 -2.22167 -0.733487 0.20892000000000002 -2.03217e-16 0.0 -3.88251e-19 -45.0892 -58.80890000000001 -43.54339999999999 -2.6441999999999997 72.79069999999999 2.82089 4.21693 -5.67114 20.736 2.03217e-16 0.0 3.88251e-19 14.2577 5.52226 5.72469 -0.00529409 42.2516 -2.84987 15.2713 -22.809 36.9883
-30.131899999999998 55.9228 96.1198 2.5331 18.7148 4.6782 -10.31 8.94965 1.40683 4.9087 -8.72026 0.609198 -7.621129999999999 15.952 -7.98098 11.4151 -24.3019 -13.2186 -0.0 0.0 0.0 -0.0 0.0 0.0 2.50411e-14 -1.30358e-13 -2.24906e-13 45.6129 37.4358 9.115779999999999 -28.191499999999998 -31.9087 70.3042 -0.00269785 1.4833599999999998 0.20851899999999998 4.8917e-10 2.78492e-09 -2.2121000000000003e-10 8.46475e-10 4.82125e-09 -3.83214e-10 4.89176e-10 2.78493e-09 -2.2121200000000002e-10 7.730909999999999 5.47488 0.417314 4.891680000000001e-10 2.78492e-09 -2.2120800000000001e-10 2.90554 0.965183 0.102902 4.891740000000001e-10 2.78492e-09 -2.2120800000000001e-10 10.278600000000003 0.731801 0.0259123 4.891630000000001e-10 2.78492e-09 -2.2120100000000006e-10 2.22167 -0.733487 -0.20892000000000002 2.5122599999999997e-14 -1.30347e-13 -2.25152e-13 -59.272600000000004 57.4698 -15.5331 28.0008 -40.4108 -84.6607 1.9365300000000005 -36.2415 5.9129 1.39522e-09 -1.4729e-08 1.54613e-09 2.3689e-09 -2.45061e-08 2.70465e-09 1.39521e-09 -1.47291e-08 1.54613e-09 -7.730909999999999 5.47488 -0.417314 1.39522e-09 -1.47291e-08 1.54613e-09 -2.90554 0.965183 -0.102902 1.39521e-09 -1.47291e-08 1.54613e-09 -10.278600000000003 0.731801 -0.0259123 1.39522e-09 -1.4729e-08 1.54611e-09 -2.22167 -0.733487 0.20892000000000002 -2.03217e-16 0.0 -3.88251e-19 -45.0865 -58.856099999999984 -43.5558 -2.67936 72.9517 2.85303 4.23056 -5.74009 20.6527 2.03217e-16 0.0 3.88251e-19 14.450300000000002 5.473509999999999 5.85258 -0.0032433700000000006 42.43509999999999 -2.86181 15.285099999999996 -22.885300000000004 36.9283
